<svg viewbox="0 0 660 260" role="img" aria-label="Tree search diagram: a root state expands into three candidate actions, each scored, the best expanded further, with value backpropagated up the tree.">
  <circle cx="70" cy="130" r="18" class="dg-box"></circle>
  <text x="70" y="135" class="dg-label-b" text-anchor="middle">s₀</text>

  <g class="dg-rule" stroke-width="1.3" fill="none">
    <path d="M 88 130 C 130 130 130 52 168 52" />
    <path d="M 88 130 C 130 130 130 130 168 130" />
    <path d="M 88 130 C 130 130 130 208 168 208" />
  </g>
  <circle cx="186" cy="52" r="18" class="dg-box"></circle>
  <circle cx="186" cy="130" r="18" class="dg-box"></circle>
  <circle cx="186" cy="208" r="18" class="dg-box"></circle>
  <text x="186" y="57" class="dg-label-b" text-anchor="middle">A</text>
  <text x="186" y="135" class="dg-label-b" text-anchor="middle">B</text>
  <text x="186" y="213" class="dg-label-b" text-anchor="middle">C</text>
  <text x="186" y="26" class="dg-label" text-anchor="middle">0.8</text>
  <text x="186" y="163" class="dg-label" text-anchor="middle">0.3</text>
  <text x="186" y="241" class="dg-label" text-anchor="middle">0.2</text>

  <g class="dg-rule" stroke-width="1.3" fill="none">
    <path d="M 204 52 C 240 52 240 28 276 28" />
    <path d="M 204 52 C 240 52 240 78 276 78" />
  </g>
  <circle cx="294" cy="28" r="16" class="dg-box"></circle>
  <circle cx="294" cy="78" r="16" class="dg-box"></circle>

  <line x1="310" y1="28" x2="360" y2="28" class="dg-rule" stroke-width="1.3"></line>
  <text x="370" y="33" class="dg-label-b dg-good" text-anchor="start">✓ goal</text>
  <line x1="310" y1="78" x2="360" y2="78" class="dg-rule" stroke-width="1.3"></line>
  <text x="370" y="83" class="dg-label-b dg-bad" text-anchor="start">✕ dead end</text>

  <path d="M 366 46 C 300 120 240 120 196 116" class="dg-stroke" stroke-width="1.6" fill="none" stroke-dasharray="5 4" />
  <polygon points="202,110 192,116 202,122" class="dg-ink"></polygon>
  <text x="300" y="152" class="dg-label-b" text-anchor="middle">backpropagate the outcome</text>
  <text x="300" y="168" class="dg-label" text-anchor="middle">— every ancestor&#39;s value updates —</text>

  <text x="470" y="128" class="dg-label-b" text-anchor="start">node value =</text>
  <text x="470" y="146" class="dg-label" text-anchor="start">LLM judge score</text>
  <text x="470" y="162" class="dg-label" text-anchor="start">+ self-consistency</text>
  <text x="470" y="178" class="dg-label" text-anchor="start">(how often sampled)</text>
  <text x="470" y="202" class="dg-label-b" text-anchor="start">selection = UCT</text>
  <text x="470" y="218" class="dg-label" text-anchor="start">value + exploration bonus</text>
  <text x="470" y="234" class="dg-label" text-anchor="start">for under-visited nodes</text>
</svg>