<svg viewbox="0 0 660 280" role="img" aria-label="Chart showing coverage rising steeply with sample count while majority voting plateaus, with the widening space between them labelled the generation-verification gap.">
  <line x1="70" y1="230" x2="620" y2="230" class="dg-rule" stroke-width="1.2"></line>
  <line x1="70" y1="230" x2="70" y2="30" class="dg-rule" stroke-width="1.2"></line>
  <text x="345" y="262" class="dg-label" text-anchor="middle">number of samples, k (log scale)</text>
  <text x="24" y="130" class="dg-label" text-anchor="middle" transform="rotate(-90 24 130)">solved</text>

  <path d="M 70 195 C 180 130 300 85 620 50" class="dg-stroke" stroke-width="2.2" fill="none" />
  <text x="612" y="38" class="dg-label-b" text-anchor="end">coverage — pass@k (perfect selector)</text>

  <path d="M 70 195 C 160 168 260 158 620 152" class="dg-stroke" stroke-width="2" fill="none" stroke-dasharray="6 4" />
  <text x="612" y="170" class="dg-label" text-anchor="end">best-of-n with a reward model</text>

  <path d="M 70 197 C 150 182 240 176 620 174" class="dg-stroke" stroke-width="1.6" fill="none" stroke-dasharray="2 3" />
  <text x="612" y="192" class="dg-label" text-anchor="end">majority voting</text>

  <line x1="470" y1="60" x2="470" y2="160" class="dg-rule" stroke-width="1"></line>
  <line x1="464" y1="60" x2="476" y2="60" class="dg-rule" stroke-width="1"></line>
  <line x1="464" y1="160" x2="476" y2="160" class="dg-rule" stroke-width="1"></line>
  <text x="484" y="105" class="dg-label-b" text-anchor="start">generation-</text>
  <text x="484" y="120" class="dg-label-b" text-anchor="start">verification gap</text>
  <text x="484" y="136" class="dg-label" text-anchor="start">answers you paid for</text>
  <text x="484" y="150" class="dg-label" text-anchor="start">and threw away</text>

  <g class="dg-label" text-anchor="middle">
    <text x="70" y="248">1</text><text x="200" y="248">10</text><text x="345" y="248">100</text><text x="490" y="248">1k</text>
  </g>
</svg>