<svg viewbox="0 0 660 220" role="img" aria-label="Comparison: agentic RAG injects whole documents into the reasoning chain, while Search-o1 inserts an extraction step that distils each document into relevant notes first.">
  <text x="20" y="22" class="dg-label-b">AGENTIC RAG</text>
  <rect x="20" y="34" width="92" height="34" rx="3" class="dg-box" />
  <text x="66" y="55" class="dg-label" text-anchor="middle">reasoning</text>
  <line x1="112" y1="51" x2="146" y2="51" class="dg-rule" stroke-width="1.4"></line>
  <rect x="148" y="34" width="76" height="34" rx="3" class="dg-box" />
  <text x="186" y="55" class="dg-label" text-anchor="middle">search</text>
  <line x1="224" y1="51" x2="258" y2="51" class="dg-rule" stroke-width="1.4"></line>
  <rect x="260" y="26" width="150" height="50" rx="3" class="dg-box" />
  <text x="335" y="46" class="dg-label-b" text-anchor="middle">10 whole documents</text>
  <text x="335" y="64" class="dg-label" text-anchor="middle">~40,000 tokens of noise</text>
  <line x1="410" y1="51" x2="444" y2="51" class="dg-rule" stroke-width="1.4"></line>
  <rect x="446" y="34" width="92" height="34" rx="3" class="dg-box" />
  <text x="492" y="55" class="dg-label" text-anchor="middle">reasoning</text>
  <text x="556" y="55" class="dg-label-b dg-bad" text-anchor="start">drowns</text>

  <line x1="20" y1="104" x2="640" y2="104" class="dg-rule" stroke-width="1"></line>

  <text x="20" y="134" class="dg-label-b">SEARCH-O1</text>
  <rect x="20" y="146" width="92" height="34" rx="3" class="dg-box" />
  <text x="66" y="167" class="dg-label" text-anchor="middle">reasoning</text>
  <line x1="112" y1="163" x2="146" y2="163" class="dg-rule" stroke-width="1.4"></line>
  <rect x="148" y="146" width="76" height="34" rx="3" class="dg-box" />
  <text x="186" y="167" class="dg-label" text-anchor="middle">search</text>
  <line x1="224" y1="163" x2="258" y2="163" class="dg-rule" stroke-width="1.4"></line>
  <rect x="260" y="138" width="150" height="50" rx="3" class="dg-box" />
  <text x="335" y="158" class="dg-label-b" text-anchor="middle">REASON-IN-DOCS</text>
  <text x="335" y="176" class="dg-label" text-anchor="middle">extract what&#39;s relevant</text>
  <line x1="410" y1="163" x2="444" y2="163" class="dg-rule" stroke-width="1.4"></line>
  <rect x="446" y="146" width="92" height="34" rx="3" class="dg-box" />
  <text x="492" y="167" class="dg-label" text-anchor="middle">reasoning</text>
  <text x="556" y="167" class="dg-label-b dg-good" text-anchor="start">continues</text>
  <text x="335" y="206" class="dg-label" text-anchor="middle">a few hundred tokens, on-topic, in the reasoning&#39;s own terms</text>
</svg>